<?xml version="1.0" standalone="no"?>
<!DOCTYPE svg PUBLIC "-//W3C//DTD SVG 20010904//EN"
 "http://www.w3.org/TR/2001/REC-SVG-20010904/DTD/svg10.dtd">
<svg version="1.0" xmlns="http://www.w3.org/2000/svg"
 width="500.000000pt" height="500.000000pt" viewBox="0 0 500.000000 500.000000"
 preserveAspectRatio="xMidYMid meet">
<metadata>
Created by potrace 1.11, written by Peter Selinger 2001-2013
</metadata>
<g transform="translate(0.000000,500.000000) scale(0.100000,-0.100000)"
fill="#000000" stroke="none">
<path d="M2375 3860 c-66 -66 -124 -120 -128 -120 -9 0 -46 15 -117 48 -19 8
-37 16 -40 17 -11 4 -48 18 -101 40 l-56 23 -22 -51 c-13 -29 -27 -63 -33 -77
-6 -14 -12 -29 -14 -35 -1 -5 -12 -32 -25 -60 -12 -27 -23 -52 -24 -55 0 -3
-6 -14 -12 -25 -10 -19 -21 -20 -182 -20 l-171 0 -2 -174 -3 -174 -80 -34
c-44 -18 -93 -40 -110 -47 -16 -7 -51 -21 -77 -31 -27 -10 -48 -19 -48 -20 0
-1 41 -104 63 -155 6 -14 10 -28 9 -32 -1 -5 3 -8 10 -8 6 0 9 -2 6 -5 -3 -3
5 -31 18 -63 l23 -57 -122 -122 -122 -123 124 -124 125 -125 -19 -43 c-10 -24
-29 -67 -42 -96 -13 -29 -23 -57 -23 -62 0 -5 -9 -25 -20 -45 -11 -19 -17 -35
-14 -35 4 0 1 -7 -6 -15 -17 -21 -9 -29 72 -60 40 -15 76 -32 79 -37 3 -6 8
-8 10 -7 2 2 37 -10 77 -26 l72 -28 0 -172 0 -173 27 -4 c16 -2 94 -3 175 -3
l147 0 22 -50 c12 -27 23 -54 25 -60 8 -29 77 -191 85 -199 5 -6 17 -5 31 1
41 20 93 38 101 35 4 -1 7 2 7 6 0 8 88 43 104 41 5 0 12 3 15 9 3 5 20 13 37
19 30 11 33 9 149 -108 66 -66 122 -119 125 -119 3 0 59 54 124 119 l120 119
36 -13 c20 -7 56 -22 80 -34 24 -12 47 -21 52 -21 4 0 37 -13 73 -30 36 -16
69 -30 74 -30 11 0 24 29 90 190 l52 126 167 -1 c103 0 170 3 174 10 4 5 8 85
8 176 l0 166 48 18 c26 10 52 21 57 25 6 4 27 13 49 20 21 7 67 25 102 41 l64
29 -21 52 c-11 29 -21 57 -22 63 -1 5 -4 12 -7 15 -3 3 -23 47 -44 98 l-38 94
118 119 c66 66 121 122 124 125 2 2 -51 60 -119 128 -109 109 -122 126 -112
143 5 11 7 23 4 27 -3 3 -2 6 4 6 6 0 14 12 18 27 3 15 18 53 32 83 14 30 26
60 28 65 1 6 8 24 15 40 23 53 20 61 -28 71 -7 1 -34 12 -60 24 -26 13 -51 23
-57 24 -5 1 -28 10 -50 20 -22 10 -55 24 -72 32 l-33 14 0 173 0 173 -171 -1
c-103 0 -174 4 -178 10 -10 13 -63 134 -65 149 -1 6 -9 27 -18 46 -16 35 -30
71 -32 80 -1 3 -6 12 -11 21 -9 15 -28 10 -168 -49 l-158 -65 -122 121 c-67
67 -125 122 -127 122 -3 0 -59 -54 -125 -120z"/>
</g>
</svg>
